<svg xmlns="http://www.w3.org/2000/svg" xmlns:xlink="http://www.w3.org/1999/xlink" width="268.003" height="93.458" viewBox="0 0 268.003 93.458">
  <defs>
    <linearGradient id="linear-gradient" x1="-0.181" y1="0.337" x2="0.759" y2="0.86" gradientUnits="objectBoundingBox">
      <stop offset="0" stop-color="#fbae17"/>
      <stop offset="0.225" stop-color="#faaa17"/>
      <stop offset="0.441" stop-color="#f89e1a"/>
      <stop offset="0.653" stop-color="#f68b1e"/>
      <stop offset="0.861" stop-color="#f27023"/>
      <stop offset="1" stop-color="#f05a28"/>
    </linearGradient>
    <linearGradient id="linear-gradient-2" x1="1.133" y1="1.245" x2="-0.061" y2="0.167" xlink:href="#linear-gradient"/>
    <linearGradient id="linear-gradient-3" x1="-43.142" y1="-40.474" x2="-42.084" y2="-40.578" gradientUnits="objectBoundingBox">
      <stop offset="0" stop-color="#fbae17"/>
      <stop offset="0.241" stop-color="#faaa17"/>
      <stop offset="0.441" stop-color="#f89e1a"/>
      <stop offset="0.653" stop-color="#f68b1e"/>
      <stop offset="0.861" stop-color="#f27023"/>
      <stop offset="1" stop-color="#f05a28"/>
    </linearGradient>
    <linearGradient id="linear-gradient-4" x1="-0.165" y1="0.19" x2="0.854" y2="0.898" xlink:href="#linear-gradient"/>
  </defs>
  <g id="Group_121" data-name="Group 121" transform="translate(-3976.677 372.135)">
    <g id="Group_118" data-name="Group 118" transform="translate(3976.677 -371.548)">
      <g id="Group_117" data-name="Group 117" transform="translate(0 0)">
        <path id="Path_13" data-name="Path 13" d="M4004.279-334.079h-14.114l-2.081,19.859h-11.407l5.218-49.812a6.741,6.741,0,0,1,6.371-5.99h18.956c11.818,0,17.311,6.318,16.09,17.971C4022.16-341.054,4015.439-334.079,4004.279-334.079Zm-1.815-10.094c5.736.082,8.891-2.625,9.458-8.042s-1.857-8.124-7.192-8.124h-11.652l-1.693,16.165Z" transform="translate(-3976.677 370.022)" fill="#fbae17"/>
      </g>
    </g>
    <path id="Path_14" data-name="Path 14" d="M4162.307-372.135h5.663l-4.77,45.547h27.246l-1.075,10.258h-38.654l5.218-49.814A6.744,6.744,0,0,1,4162.307-372.135Z" transform="translate(-125.699)" fill="#0c71b8"/>
    <path id="Path_15" data-name="Path 15" d="M4321.662-372.135c3.611,0,5.145,1.806,4.693,5.334l-.335,3.2H4315.1l.9-8.535Zm-1.3,12.392c3.529,0,5.072,1.723,4.7,5.252l-4,38.161h-10.916l4.547-43.413Z" transform="translate(-240.851)" fill="#0c71b8"/>
    <path id="Path_16" data-name="Path 16" d="M4401.97-285.813c-3.584-.246-5.21-1.969-4.849-5.416l2.339-22.322c.226-4.514-2-6.73-6.846-6.73s-7.536,2.216-8.09,6.73l-2.907,27.738h-11.079l2.673-25.523c1.3-12.392,8.181-18.547,20.572-18.547s17.821,6.155,16.44,18.547l-2.673,25.523Z" transform="translate(-284.464 -30.516)" fill="#0c71b8"/>
    <path id="Path_17" data-name="Path 17" d="M4538.75-366.8l-2.519,24.046,15.075-15.429h13.13l-16.7,16.085,12.483,25.769h-13.131l-6.218-14.279q-1.707-3.694-3.8-3.693a2.262,2.262,0,0,0-1.945,2.134l-1.661,15.839h-10.916l5.847-55.805h5.663A4.734,4.734,0,0,1,4538.75-366.8Z" transform="translate(-394.252)" fill="#0c71b8"/>
    <g id="Group_119" data-name="Group 119" transform="translate(4175.181 -354.824)">
      <path id="Path_18" data-name="Path 18" d="M4732.535-296.2l-14.839-8.941-6.568-3.957c-2.933-.3-6.246,1.052-7.178,3.563l-.773,7.379-3.149,30.062,41.927-22.432Z" transform="translate(-4697.617 309.326)" fill="url(#linear-gradient)"/>
      <path id="Path_19" data-name="Path 19" d="M4695.28-213.663l-3.149,30.063-.773,7.378c-.247,2.36,4.241,4.549,6.355,3.606l7.473-4,16.712-8.942,10.609-5.676Z" transform="translate(-4691.349 240.369)" fill="url(#linear-gradient-2)"/>
      <path id="Path_20" data-name="Path 20" d="M4790.606-223.381l4.7-44.862,37.23,22.431Z" transform="translate(-4763.037 279.789)" fill="url(#linear-gradient-3)"/>
      <path id="Path_21" data-name="Path 21" d="M4740.722-296.685l-14.839-8.941-6.568-3.957c-1.917-.944-6.931,1.2-7.178,3.563l-.773,7.379,17.078,19.242,21.7-11.611Z" transform="translate(-4705.804 309.811)" fill="url(#linear-gradient-4)"/>
    </g>
    <g id="Group_120" data-name="Group 120" transform="translate(4082.543 -309.438)">
      <path id="Path_22" data-name="Path 22" d="M4364.215-146.407h3.122l-2.63,25.107h15.019l-.593,5.655h-21.307L4360.7-143.1A3.718,3.718,0,0,1,4364.215-146.407Z" transform="translate(-4357.826 146.407)" fill="#fbae17"/>
      <path id="Path_23" data-name="Path 23" d="M4452.055-146.407c1.991,0,2.836,1,2.588,2.94l-.185,1.764h-6.018l.493-4.7Zm-.715,6.831c1.945,0,2.8.95,2.592,2.9l-2.2,21.035h-6.017l2.507-23.93Z" transform="translate(-4421.3 146.407)" fill="#fbae17"/>
      <path id="Path_24" data-name="Path 24" d="M4493.894-125.346l1.217-9.691,6.142-.07.39-2.994a1.7,1.7,0,0,0-1.706-1.919l-4.2.048.551-4.276a1.794,1.794,0,0,0-1.8-2.023l-3.442-.053-.831,6.415-4.937.056-.638,4.935,4.936-.056-1.437,11.045c-.117.929-.2,1.866-.234,2.784a5.768,5.768,0,0,0,.514,2.726,4.506,4.506,0,0,0,2.052,2.04,8.525,8.525,0,0,0,4.045.716c.239,0,.531-.022.892-.06.343-.037.7-.081,1.068-.133a9.642,9.642,0,0,0,1.169-.242,4.816,4.816,0,0,0,1.116-.449l.263-.15.732-5.4-1.065.585a4.484,4.484,0,0,1-1.352.474,8.861,8.861,0,0,1-1.485.151,2.512,2.512,0,0,1-1.461-.31,1.493,1.493,0,0,1-.57-.846,4.5,4.5,0,0,1-.118-1.459C4493.744-124.1,4493.807-124.721,4493.894-125.346Z" transform="translate(-4449.417 146.346)" fill="#fbae17"/>
      <path id="Path_25" data-name="Path 25" d="M4579.136-129.24a11.184,11.184,0,0,0-1.681-4.63,10.036,10.036,0,0,0-3.7-3.352,12.454,12.454,0,0,0-5.958-1.278,15.352,15.352,0,0,0-5.728,1.084,16.337,16.337,0,0,0-4.833,2.985,16.9,16.9,0,0,0-3.549,4.486,15.882,15.882,0,0,0-1.82,5.594,14.584,14.584,0,0,0,.175,5.626,11.492,11.492,0,0,0,2.2,4.564,10.7,10.7,0,0,0,4.03,3.048,13.769,13.769,0,0,0,5.641,1.093,16.422,16.422,0,0,0,12.659-5.51l.42-.464-4.2-3.636-.4.416a15.909,15.909,0,0,1-3.405,2.715,7.552,7.552,0,0,1-3.841.985,8.789,8.789,0,0,1-3.006-.511,6.993,6.993,0,0,1-2.377-1.407,5.757,5.757,0,0,1-1.464-2.154,5.37,5.37,0,0,1-.341-2.256h20.817l.355-2.269,0-.016A19.448,19.448,0,0,0,4579.136-129.24Zm-20.446,2.233a7.025,7.025,0,0,1,.727-1.736,9.151,9.151,0,0,1,1.887-2.282,9.95,9.95,0,0,1,2.674-1.675,8.026,8.026,0,0,1,3.177-.635,7.434,7.434,0,0,1,2.952.524,4.564,4.564,0,0,1,1.852,1.4,5.139,5.139,0,0,1,.933,2.13,9.162,9.162,0,0,1,.145,2.277Z" transform="translate(-4497.837 140.696)" fill="#fbae17"/>
    </g>
  </g>
</svg>
